# xmcd
#
# Track frame offsets: 
#        150
#        9641
#        18911
#        28539
#        38141
#        43671
#        53954
#        62524
#        69449
#        80442
#        86957
#        95152
#        99067
#        103812
#        111614
#        130292
#        138937
#        143942
#        155922
#        168105
#        175352
#        181272
#        187117
#        202990
#
# Disc length: 2768 seconds
#
# Revision: 0
# Processed by: cddbd v1.5.2PL0 Copyright (c) Steve Scherf et al.
# Submitted via: ExactAudioCopy v1.1
#
DISCID=520ace18
DTITLE=Lead Belly - A Bad Boy and His Blues
DYEAR=2014
DGENRE=Blues
TTITLE0=No Good Rider
TTITLE1=Rock Island Line
TTITLE2=In The Pines
TTITLE3=Cotton Fields
TTITLE4=Big Fat Woman
TTITLE5=Take This Hammer
TTITLE6=Irene
TTITLE7=Pick A Bale Of Cotton
TTITLE8=Good Morning Blues
TTITLE9=Grey Goose
TTITLE10=On A Monday
TTITLE11=Bring A Little Water Sylvie
TTITLE12=Moanin‘
TTITLE13=Laura
TTITLE14=Duncan And Brady
TTITLE15=New Orleans (The Rising Sun Blues)
TTITLE16=Chicken Crowing For Midnight
TTITLE17=You Can‘t Lose Me Cholly
TTITLE18=Sally Walker
TTITLE19=Ha Ha This A Way
TTITLE20=Yellow Gal
TTITLE21=Green Corn
TTITLE22=Let It Shine On Me
TTITLE23=Meeting At The Building
EXTD=
EXTT0=
EXTT1=
EXTT2=
EXTT3=
EXTT4=
EXTT5=
EXTT6=
EXTT7=
EXTT8=
EXTT9=
EXTT10=
EXTT11=
EXTT12=
EXTT13=
EXTT14=
EXTT15=
EXTT16=
EXTT17=
EXTT18=
EXTT19=
EXTT20=
EXTT21=
EXTT22=
EXTT23=
PLAYORDER=
